# xmcd
#
# Track frame offsets: 
#        150
#        13566
#        26920
#        40312
#
# Disc length: 843 seconds
#
# Revision: 2
# Processed by: cddbd v1.5.2PL0 Copyright (c) Steve Scherf et al.
# Submitted via: ExactAudioCopy v0.95b4
#
DISCID=2a034904
DTITLE=Girl Talk [CDS) - Dhani
DYEAR=2004
DGENRE=Pop
TTITLE0=Girl Talk (Radio Editon)
TTITLE1=Girl Talk (feat. Nik and Jay)
TTITLE2=Girl Talk (feat. Mighty 44)
TTITLE3=Girl Talk (Antiloop Remix)
EXTD=YEAR: 2005
EXTT0=
EXTT1=
EXTT2=
EXTT3=
PLAYORDER=
